<svg width="1366" height="768" viewBox="0 0 1366 768" fill="none" xmlns="http://www.w3.org/2000/svg">
<g clip-path="url(#clip0_509_521)">
<rect x="0.0861816" y="-0.381592" width="3200" height="2400" fill="white"/>
<g filter="url(#filter0_f_509_521)">
<path d="M659.249 210.302C623.711 95.26 498.731 18.6948 380.099 39.2889L252.802 61.3872C134.17 81.9813 66.8097 191.936 102.348 306.978V306.978C137.887 422.02 262.866 498.585 381.498 477.991L508.795 455.893C627.427 435.299 694.788 325.344 659.249 210.302V210.302Z" fill="url(#paint0_radial_509_521)"/>
<path d="M659.249 210.302C623.711 95.26 498.731 18.6948 380.099 39.2889L252.802 61.3872C134.17 81.9813 66.8097 191.936 102.348 306.978V306.978C137.887 422.02 262.866 498.585 381.498 477.991L508.795 455.893C627.427 435.299 694.788 325.344 659.249 210.302V210.302Z" stroke="#FCFF52" stroke-width="108.863"/>
</g>
<g style="mix-blend-mode:color" filter="url(#filter1_f_509_521)">
<rect width="515.991" height="414.908" rx="207.454" transform="matrix(-0.963981 0.26597 0.440726 0.897641 985.023 236.297)" fill="url(#paint1_radial_509_521)"/>
</g>
<g style="mix-blend-mode:screen" filter="url(#filter2_f_509_521)">
<path d="M953.878 55.5869C845.506 -71.2105 635.765 -115.458 485.408 -43.2427L396.245 -0.418101C245.888 71.7972 211.853 233.129 320.225 359.926V359.926C428.598 486.723 638.339 530.971 788.695 458.756L877.859 415.931C1028.22 343.716 1062.25 182.384 953.878 55.5869V55.5869Z" fill="url(#paint2_radial_509_521)"/>
</g>
<g filter="url(#filter3_f_509_521)">
<path d="M1335.15 624.159C1427.68 536.652 1413.94 412.974 1304.45 347.917L1277.32 331.797C1167.84 266.739 1004.07 284.938 911.542 372.445V372.445C819.011 459.952 832.755 583.63 942.24 648.687L969.368 664.807C1078.85 729.865 1242.62 711.666 1335.15 624.159V624.159Z" fill="url(#paint3_angular_509_521)"/>
</g>
<g style="mix-blend-mode:lighten" filter="url(#filter4_f_509_521)">
<rect width="782.016" height="628.818" rx="314.409" transform="matrix(-0.963981 0.26597 0.440726 0.897641 1739.85 210)" fill="#FF4400"/>
</g>
</g>
<g clip-path="url(#clip1_509_521)">
<path d="M489.879 446.092C492.373 447.341 494.867 447.341 489.879 453.583C484.892 459.827 464.941 472.315 449.978 498.538C435.015 524.761 428.781 538.498 415.064 569.716C401.348 600.934 398.855 610.923 398.855 610.923" stroke="#222B41" stroke-width="4.05707" stroke-miterlimit="10"/>
<path d="M359.578 616.542C359.578 620.289 364.565 629.029 372.046 636.522C379.527 644.014 389.502 649.009 391.997 649.009C394.49 649.009 400.725 647.761 401.972 637.77C403.218 627.782 401.972 615.294 396.985 609.05C389.254 599.435 374.539 602.806 369.552 605.303C364.565 607.801 362.071 611.547 360.824 612.796C359.578 614.045 359.578 616.542 359.578 616.542Z" stroke="#222B41" stroke-width="4.05707" stroke-miterlimit="10"/>
<path d="M380.774 612.796C372.046 612.796 365.811 619.04 362.071 624.035" stroke="#222B41" stroke-width="2.9506" stroke-miterlimit="10"/>
<path d="M388.754 624.035C388.754 624.035 378.281 627.781 373.294 637.77" stroke="#222B41" stroke-width="2.9506" stroke-miterlimit="10"/>
<path d="M391.997 649.009C391.997 649.009 401.972 662.745 409.453 671.486C416.936 680.228 426.909 687.72 426.909 687.72C426.909 687.72 438.132 672.735 463.071 652.756C488.009 632.775 507.958 624.035 509.206 620.289C510.453 616.542 510.453 621.538 521.676 616.542C532.897 611.547 544.12 606.552 562.823 596.563C581.527 586.573 593.995 580.329 597.737 576.583C601.477 572.836 601.477 572.836 601.477 572.836C601.477 572.836 611.453 575.334 632.649 572.836C653.848 570.34 709.958 564.096 743.625 559.101C777.291 554.106 809.711 547.862 809.711 547.862C809.711 547.862 863.328 542.867 867.068 542.867C870.809 542.867 888.265 534.127 900.735 527.883C913.203 521.639 920.686 515.395 920.686 514.146C920.686 512.897 921.932 510.401 913.203 509.153C904.475 507.904 837.142 494.167 812.204 487.923C787.267 481.681 757.34 472.939 748.612 470.442C739.884 467.944 687.514 422.989 668.811 406.757C650.106 390.524 612.699 363.052 607.711 358.057C602.723 353.062 600.23 343.071 591.502 336.827C582.774 330.585 572.799 330.585 569.058 326.839C565.316 323.092 560.329 305.609 550.353 301.864C540.379 298.118 523.421 292.749 520.926 290.251C518.433 287.754 520.926 296.494 520.926 296.494C520.926 296.494 519.68 301.489 517.186 296.494C514.693 291.5 518.682 289.751 518.682 289.751C518.682 289.751 517.934 283.007 512.946 278.014C507.958 273.019 499.23 261.779 496.737 255.536C494.243 249.293 481.774 193.1 471.799 174.369C461.823 155.638 465.564 150.643 459.33 138.156C453.095 125.669 451.848 125.669 451.848 124.42" stroke="#222B41" stroke-width="4.05707" stroke-miterlimit="10"/>
<path d="M471.799 171.996C471.799 171.996 475.539 160.758 474.292 147.022C473.046 133.286 470.551 127.042 470.551 127.042C470.551 127.042 474.292 130.789 480.527 130.789C486.762 130.789 490.003 124.545 490.003 124.545C490.003 124.545 496.737 124.545 495.49 122.047C494.243 119.55 489.255 117.052 481.774 113.306C474.292 109.56 468.058 98.3215 451.848 89.5805C435.639 80.8394 428.157 77.0933 416.934 67.1035C405.713 57.1137 396.985 53.3675 390.75 49.6213C384.515 45.8752 375.787 49.6213 368.306 50.8701C360.824 52.1188 353.343 53.3675 353.343 53.3675" stroke="#222B41" stroke-width="4.05707" stroke-miterlimit="10"/>
<path d="M394.615 131.787C394.615 131.787 391.373 127.042 390.875 118.301C390.376 109.56 390.875 108.311 380.9 92.0779C370.924 75.8446 350.973 49.6213 350.973 49.6213C350.973 49.6213 349.726 48.3725 343.493 47.1238C337.258 45.8751 317.058 53.4923 312.319 55.8649C302.344 60.8598 301.098 67.1035 302.344 70.8496" stroke="#222B41" stroke-width="4.05707" stroke-miterlimit="10"/>
<path d="M213.689 110.06C213.689 110.06 216.183 105.814 226.159 102.068C236.134 98.3215 303.466 70.8495 303.466 70.8495C303.466 70.8495 315.936 65.8547 328.404 65.8547C340.873 65.8547 350.848 72.0983 359.578 85.8342C368.306 99.5702 368.306 102.068 372.046 115.804C375.787 129.54 389.502 170.747 388.257 188.23C387.009 205.712 387.009 213.205 380.774 224.442C374.539 235.682 362.071 249.417 362.071 265.651C362.071 274.391 362.071 278.137 362.071 278.137C362.071 278.137 359.578 285.63 359.578 286.879C359.578 288.128 360.824 288.128 364.565 286.879C368.306 285.63 370.799 284.381 368.306 281.884C365.811 279.386 363.318 279.386 359.578 275.64C355.836 271.895 353.343 269.397 348.355 263.153C343.367 256.909 342.12 255.661 342.12 255.661" stroke="#222B41" stroke-width="4.05707" stroke-miterlimit="10"/>
<path d="M308.453 120.799C299.725 135.783 312.195 153.265 327.157 154.514C339.876 155.513 345.86 152.017 354.59 147.022C363.318 142.027 363.318 125.794 362.071 119.55C360.824 113.306 353.343 107.063 343.367 105.814C333.392 104.565 320.424 112.307 314.688 115.804C308.453 119.55 305.96 123.296 303.466 125.794C300.973 128.291 298.478 124.545 298.478 124.545C298.478 124.545 295.985 123.296 297.232 125.794C298.478 128.291 300.973 128.291 302.22 130.788C303.466 133.286 304.713 137.032 305.96 137.032" stroke="#222B41" stroke-width="3.31942" stroke-miterlimit="10"/>
<path d="M332.145 256.909C332.145 256.909 334.639 275.64 344.615 285.63C354.59 295.62 372.794 315.6 374.291 317.473C375.787 319.346 375.787 321.843 375.787 323.092" stroke="#222B41" stroke-width="4.05707" stroke-miterlimit="10"/>
<path d="M239.626 258.158C239.626 258.158 242.493 263.153 248.728 263.153C254.961 263.153 279.9 261.905 297.356 260.656C314.814 259.407 331.023 256.909 339.752 255.661C348.48 254.412 364.689 251.914 364.689 251.914" stroke="#222B41" stroke-width="4.05707" stroke-miterlimit="10"/>
<path d="M258.578 228.189C258.578 228.189 262.318 233.184 263.566 233.184C264.811 233.184 267.306 220.696 269.799 220.696C272.294 220.696 276.034 228.189 279.775 228.189C283.516 228.189 297.232 210.707 299.725 210.707C302.22 210.707 306.084 221.945 309.078 221.945C312.07 221.945 317.182 209.459 320.923 209.459C324.664 209.459 333.392 219.447 337.132 219.447C340.873 219.447 353.827 209.459 348.355 201.966" stroke="#222B41" stroke-width="2.9506" stroke-miterlimit="10"/>
<path d="M254.213 176.866C254.213 176.866 299.476 169.374 336.01 162.006C373.417 154.514 382.147 150.643 382.147 150.643" stroke="#222B41" stroke-width="2.21295" stroke-miterlimit="10"/>
<path d="M168.801 168.25C171.294 171.996 172.541 170.748 175.035 170.748C177.529 170.748 180.023 170.748 180.023 168.25C180.023 165.753 180.023 163.255 175.035 159.509C170.048 155.763 168.801 158.26 167.554 159.509C166.307 160.758 167.429 162.256 167.554 163.255C167.678 164.254 166.681 165.003 168.801 168.25Z" stroke="#222B41" stroke-width="3.68825" stroke-miterlimit="10"/>
<path d="M192.492 165.753C192.492 165.753 193.739 165.753 193.739 162.006C193.739 158.26 196.232 155.763 197.48 154.514C203.713 148.27 207.455 148.27 209.948 148.27C212.443 148.27 214.936 149.519 217.431 153.265C219.924 157.012 219.924 155.763 220.797 155.763C221.669 155.763 221.171 153.265 219.924 148.27C218.676 143.276 212.443 140.778 207.455 140.778C202.467 140.778 194.985 143.276 188.752 149.519C182.516 155.763 183.763 159.509 183.763 164.504C183.763 169.499 188.752 170.747 188.752 170.747C188.752 170.747 192.492 171.996 196.232 168.25C199.973 164.504 204.212 163.005 206.208 163.255C208.203 163.505 213.689 164.504 211.196 167.001C208.701 169.499 206.208 170.747 201.22 171.996C196.232 173.245 196.232 173.245 194.985 174.494C193.739 175.742 191.245 174.494 191.245 173.245C191.245 171.996 191.245 170.747 191.245 170.747" stroke="#222B41" stroke-width="2.9506" stroke-miterlimit="10"/>
<path d="M191.769 173.951V171.279L193.105 170.339L196.222 168.607L201.219 164.501L205.573 163.313L211.659 164.501V166.826L207.799 169.993L197.608 173.01L193.65 174.643L191.769 173.951Z" fill="#222B41"/>
<path d="M229.899 149.519C229.899 149.519 227.406 140.778 231.146 138.281C234.887 135.783 242.368 132.037 246.109 142.027C249.85 152.017 253.59 160.009 247.355 163.255C241.122 166.502 239.001 165.253 238.128 164.254C237.38 163.255 237.38 162.007 237.38 162.007C237.38 162.007 238.627 159.509 241.122 157.012C243.615 154.514 242.368 154.639 239.874 155.763C237.38 156.887 234.887 160.758 234.887 159.509C234.887 157.012 237.256 154.514 236.134 154.514C235.012 154.514 232.891 157.012 232.018 155.763C231.146 154.514 234.388 151.517 237.38 149.519C241.122 147.022 234.887 149.519 229.899 153.266" stroke="#222B41" stroke-width="2.9506" stroke-miterlimit="10"/>
<path d="M172.791 157.511C172.791 157.511 173.913 153.265 172.666 149.519C171.419 145.773 170.172 139.53 171.419 134.535C172.666 129.54 175.16 122.047 185.135 115.804C195.11 109.56 206.333 107.063 213.814 109.56C221.295 112.058 232.517 124.545 235.012 128.291C237.505 132.037 237.754 132.662 239.5 135.534" stroke="#222B41" stroke-width="3.68825" stroke-miterlimit="10"/>
<path d="M248.728 162.381C248.728 162.381 257.331 178.24 258.578 198.219C259.825 218.199 261.071 229.438 256.083 236.93C251.097 244.422 246.109 253.163 239.874 258.158C233.639 263.153 232.392 264.402 226.159 264.402C219.924 264.402 216.183 261.905 212.443 258.158C208.701 254.412 208.327 247.295 206.208 244.422C202.467 239.428 199.973 240.677 197.48 238.179C195.484 236.181 196.232 235.682 196.232 235.682" stroke="#222B41" stroke-width="3.68825" stroke-miterlimit="10"/>
<path d="M177.529 171.996L180.023 177.491C180.023 177.491 181.27 179.489 177.529 183.235C173.788 186.981 173.788 203.215 173.788 203.215C173.788 203.215 172.541 204.463 172.541 208.21C172.541 210.707 175.035 213.205 177.529 213.205C180.023 213.205 182.516 216.95 188.752 215.701C194.985 214.452 196.232 211.956 197.48 209.459C198.726 206.961 203.713 209.459 207.455 206.961C211.196 204.463 212.443 201.966 211.196 198.219C209.948 194.473 203.713 195.722 202.467 193.225C201.22 190.727 202.467 188.604 202.467 188.604" stroke="#222B41" stroke-width="3.68825" stroke-miterlimit="10"/>
<path d="M209.948 184.484C211.944 182.486 216.183 179.614 228.652 180.737C242.368 181.986 247.355 189.479 248.603 195.722C249.85 201.966 248.603 213.205 229.899 225.691C211.196 238.179 196.232 238.179 191.245 233.184C186.257 228.189 187.379 217.825 194.985 214.454C206.208 209.459 211.196 213.205 218.676 203.215C226.782 192.351 213.689 185.732 211.196 186.981C208.701 188.23 208.701 185.732 209.948 184.484Z" stroke="#222B41" stroke-width="2.9506" stroke-miterlimit="10"/>
<path d="M192.118 233.934C192.118 233.934 189.997 238.179 183.763 236.93C177.529 235.682 171.294 231.935 170.047 224.443C168.801 216.95 171.294 211.956 173.788 210.707" stroke="#222B41" stroke-width="3.68825" stroke-miterlimit="10"/>
<path d="M188.752 221.945C188.752 221.945 187.504 216.95 183.763 215.701" stroke="#222B41" stroke-width="2.9506" stroke-miterlimit="10"/>
<path d="M198.103 162.381C198.103 162.381 200.098 158.26 206.332 158.26C212.567 158.26 215.684 161.882 215.684 161.882C215.684 161.882 220.049 168.25 216.307 170.748C212.567 173.245 210.073 173.245 210.073 173.245C210.073 173.245 203.216 175.493 200.97 176.866C198.851 178.24 196.232 177.366 196.232 177.366" stroke="#222B41" stroke-width="2.9506" stroke-miterlimit="10"/>
<path d="M405.713 592.067C405.713 592.067 410.701 601.557 416.936 610.298C423.169 619.04 438.132 635.273 444.367 641.517C450.601 647.761 459.33 655.753 459.33 655.753" stroke="#222B41" stroke-width="2.9506" stroke-miterlimit="10"/>
<path d="M390.75 522.888C390.75 522.888 380.774 536.624 382.022 559.101C383.269 581.578 394.366 598.56 400.476 605.679" stroke="#222B41" stroke-width="2.21295" stroke-miterlimit="10"/>
<path d="M439.379 673.984C439.379 673.984 441.001 680.852 445.863 683.099C450.726 685.346 453.095 691.465 458.083 695.212C463.071 698.958 488.009 706.451 499.23 706.451C510.453 706.451 536.637 711.446 564.07 710.197C591.502 708.948 677.539 708.948 699.983 706.451C722.427 703.953 747.365 692.714 747.365 692.714" stroke="#222B41" stroke-width="2.21295" stroke-miterlimit="10"/>
<path d="M751.105 642.765C754.846 640.268 762.328 635.273 778.537 635.273C793.5 635.273 803.101 640.892 805.97 642.765C809.711 645.263 809.711 646.512 809.711 647.011C809.711 657.001 809.711 707.825 809.711 707.825C809.711 707.825 809.711 710.322 805.97 712.818C802.228 715.316 795.995 719.062 778.537 719.062C764.821 719.062 755.47 715.817 751.105 712.818C747.365 710.322 747.365 707.825 747.365 707.825V647.011C747.365 647.011 748.238 644.764 751.105 642.765Z" stroke="#222B41" stroke-width="2.9506" stroke-miterlimit="10"/>
<path d="M791.007 642.765C791.007 642.765 786.019 640.892 778.537 640.892C771.056 640.892 762.328 642.765 758.588 645.263C754.846 647.761 754.846 647.761 754.846 649.009C754.846 650.258 761.081 654.878 779.535 654.878C798.488 654.878 802.228 650.258 802.228 650.258" stroke="#222B41" stroke-width="2.9506" stroke-miterlimit="10"/>
<path d="M809.711 655.253C809.711 655.253 815.946 655.253 820.933 656.502C824.548 657.375 834.649 662.745 834.649 675.232C834.649 686.472 830.907 692.714 823.426 696.46C816.32 699.956 809.711 701.081 809.711 701.081" stroke="#222B41" stroke-width="2.9506" stroke-miterlimit="10"/>
<path d="M809.711 665.618C809.711 665.618 813.326 665.618 816.194 666.242C818.313 666.616 824.049 669.239 824.049 675.107C824.049 680.476 821.93 683.35 817.565 685.223C813.451 686.846 809.711 687.47 809.711 687.47" stroke="#222B41" stroke-width="2.9506" stroke-miterlimit="10"/>
<path d="M822.179 656.502C822.179 656.502 827.167 651.507 830.907 637.77C834.649 624.035 835.895 614.045 835.895 614.045C835.895 614.045 845.87 606.552 848.365 581.578C850.858 556.604 848.365 544.366 848.365 544.366" stroke="#222B41" stroke-width="2.21295" stroke-miterlimit="10"/>
<path d="M841.008 494.543C841.008 494.543 835.895 474.188 824.674 459.203C813.451 444.219 814.698 434.228 807.216 421.742C799.735 409.254 805.97 393.021 800.982 370.543C795.995 348.067 791.007 344.32 791.007 344.32C791.007 344.32 799.735 318.097 783.525 269.397C767.316 220.696 729.909 188.23 658.835 189.479C607.459 189.479 602.932 198.219 602.932 198.219C602.932 198.219 570.513 196.971 551.809 225.691C533.106 254.412 529.905 294.497 529.905 294.497" stroke="#222B41" stroke-width="2.21295" stroke-miterlimit="10"/>
<path d="M685.02 315.6C685.02 315.6 708.711 329.336 708.711 356.808C708.711 384.28 699.983 395.517 699.983 395.517" stroke="#222B41" stroke-width="2.21295" stroke-miterlimit="10"/>
<path d="M716.193 373.041C716.193 373.041 717.439 388.026 713.698 395.517C709.958 403.01 703.474 406.132 703.474 406.132" stroke="#222B41" stroke-width="2.21295" stroke-miterlimit="10"/>
<path d="M603.971 592.817C603.971 592.817 630.156 605.303 668.811 602.806C707.463 600.31 722.427 590.319 722.427 590.319" stroke="#222B41" stroke-width="2.21295" stroke-miterlimit="10"/>
<path d="M666.316 614.045C666.316 614.045 679.783 615.294 690.007 612.796C700.232 610.299 707.463 605.303 707.463 605.303" stroke="#222B41" stroke-width="2.21295" stroke-miterlimit="10"/>
<path d="M761.081 627.782C761.081 627.782 754.846 621.538 754.846 620.913C754.846 620.289 762.328 617.791 762.328 615.294C762.328 612.796 753.6 610.299 753.6 607.801C753.6 605.303 761.705 605.928 761.455 603.181C761.206 600.433 751.105 599.061 751.105 595.315C751.105 591.568 761.081 591.568 761.081 589.071C761.081 586.573 754.846 583.701 754.846 580.08C754.846 576.459 761.081 574.085 761.081 572.836" stroke="#222B41" stroke-width="2.9506" stroke-miterlimit="10"/>
<path d="M777.789 627.782C777.789 627.782 771.181 622.786 771.181 619.04C771.181 615.294 781.157 618.042 781.157 614.045C781.157 610.05 769.934 611.547 769.934 607.801C769.934 604.055 779.036 605.928 779.41 603.181C779.909 600.31 769.934 598.56 769.934 594.44" stroke="#222B41" stroke-width="2.9506" stroke-miterlimit="10"/>
<path d="M792.254 615.294C792.254 615.294 794.747 611.547 794.747 609.05C794.747 606.552 786.767 607.176 786.393 603.181C786.019 599.061 794.747 600.433 794.747 597.311C794.747 594.189 786.767 594.189 786.393 590.445C786.019 586.698 794.747 589.196 794.747 584.575C794.747 581.703 790.508 581.204 789.76 576.708" stroke="#222B41" stroke-width="2.9506" stroke-miterlimit="10"/>
<path d="M281.022 517.893C281.022 517.893 281.022 521.639 288.503 527.883C295.985 534.127 298.478 531.629 298.478 531.629C298.478 531.629 303.591 525.385 302.843 517.893" stroke="#222B41" stroke-width="4.05707" stroke-miterlimit="10"/>
<path d="M382.022 545.49C382.022 545.49 377.408 545.49 371.298 547.363C367.307 548.612 362.819 550.61 358.456 554.106C350.35 560.475 343.493 571.464 340.375 576.958C339.253 579.08 337.506 578.831 335.887 576.583C330.774 569.714 319.925 554.981 316.185 550.234C311.197 543.992 298.728 531.504 298.728 531.504" stroke="#222B41" stroke-width="4.05707" stroke-miterlimit="10"/>
<path d="M347.108 520.39C347.108 520.39 349.602 525.385 358.33 534.127C367.059 542.867 371.173 547.363 371.173 547.363" stroke="#222B41" stroke-width="2.9506" stroke-miterlimit="10"/>
<path d="M438.132 423.989L451.848 492.918" stroke="#222B41" stroke-width="3.31942" stroke-miterlimit="10"/>
<path d="M434.392 525.011L234.887 514.146C234.887 514.146 232.392 514.146 229.899 511.65C227.404 509.153 226.159 506.655 226.159 506.655L177.529 368.046C177.529 368.046 175.035 364.675 177.529 361.428C180.023 358.181 183.763 358.057 183.763 358.057L418.181 348.067C418.181 348.067 420.676 348.067 423.169 350.564C425.664 353.062 425.664 358.057 425.664 358.057L431.773 389.275" stroke="#222B41" stroke-width="4.05707" stroke-miterlimit="10"/>
<path d="M427.783 391.773L420.8 358.057C420.8 358.057 419.554 354.31 415.813 353.062C412.072 351.813 178.901 363.052 178.901 363.052C178.901 363.052 175.16 363.052 177.654 368.046" stroke="#222B41" stroke-width="2.21295" stroke-miterlimit="10"/>
<path d="M449.978 498.538L435.265 427.861" stroke="#222B41" stroke-width="2.9506" stroke-miterlimit="10"/>
<path d="M542.872 381.782C542.872 381.782 539.132 395.517 531.65 400.513C524.169 405.508 517.186 406.132 517.186 406.132" stroke="#222B41" stroke-width="2.9506" stroke-miterlimit="10"/>
<path d="M530.404 401.761C530.404 401.761 527.909 414.249 525.416 421.741C522.922 429.233 519.181 431.731 519.181 431.731C519.181 431.731 518.807 434.354 517.186 434.354C515.441 434.228 512.946 431.731 511.7 430.482C510.453 429.233 509.206 431.731 495.49 429.233C481.774 426.736 464.318 415.498 455.588 415.498C446.86 415.498 444.99 415.498 444.99 415.498" stroke="#222B41" stroke-width="2.9506" stroke-miterlimit="10"/>
<path d="M421.922 420.493C416.934 420.493 415.688 426.736 415.688 426.736L413.194 434.228C413.194 434.228 410.701 435.477 409.453 430.482C408.206 425.487 405.713 411.752 406.96 408.005C408.206 404.259 415.688 394.269 419.429 393.02C423.169 391.773 425.664 391.773 425.664 391.773C425.664 391.773 427.16 391.647 429.404 390.524C431.897 389.275 440.627 389.275 440.627 389.275C440.627 389.275 445.613 390.524 445.613 394.269C445.613 398.015 444.367 405.508 444.367 408.005C444.367 410.503 444.616 411.002 444.616 411.002" stroke="#222B41" stroke-width="2.9506" stroke-miterlimit="10"/>
<path d="M420.676 409.254C423.169 409.254 424.416 411.752 423.169 416.747C421.922 421.742 420.676 426.736 421.922 429.233C423.169 431.731 425.664 437.975 426.909 440.472C428.157 442.97 429.903 440.846 430.651 439.224C431.897 436.726 431.897 430.482 435.639 426.736C439.379 422.991 441.873 420.493 443.12 417.996C444.367 415.498 444.865 414.374 444.616 411.877C444.367 409.254 446.86 408.005 448.108 401.761C449.355 395.517 448.108 387.527 445.613 386.777C443.12 386.028 440.625 385.529 439.379 386.777C438.132 388.026 437.883 389.275 437.883 389.275C437.883 389.275 435.015 389.025 436.885 385.529C438.132 383.031 440.625 381.782 445.613 381.782C450.601 381.782 456.836 383.031 464.316 386.777C471.799 390.524 490.502 394.269 496.737 394.269" stroke="#222B41" stroke-width="2.9506" stroke-miterlimit="10"/>
<path d="M491.75 370.543C491.75 370.543 490.502 376.787 490.502 383.031C490.502 389.275 491.75 394.269 491.75 394.269" stroke="#222B41" stroke-width="2.9506" stroke-miterlimit="10"/>
<path d="M370.55 350.065C370.55 350.065 364.565 331.834 362.071 321.843C359.578 311.853 357.083 298.617 357.083 298.617" stroke="#222B41" stroke-width="4.05707" stroke-miterlimit="10"/>
<path d="M367.059 341.823C367.059 341.823 362.071 343.071 357.083 345.569C352.095 348.067 349.602 350.938 349.602 350.938" stroke="#222B41" stroke-width="4.05707" stroke-miterlimit="10"/>
<path d="M344.372 351.318C344.372 351.318 317.182 330.585 313.441 326.839C309.701 323.092 307.956 324.341 307.582 324.341C307.208 324.341 295.985 341.823 295.985 341.823C295.985 341.823 294.738 344.32 295.985 345.569C298.478 348.067 307.208 352.811 307.208 352.811" stroke="#222B41" stroke-width="4.05707" stroke-miterlimit="10"/>
<path d="M297.232 339.325C292.245 340.574 288.504 339.325 288.504 339.325C288.504 339.325 284.762 341.823 281.022 343.071C277.281 344.32 271.047 350.564 271.047 350.564C271.047 350.564 269.799 353.062 268.553 351.813C267.306 350.564 267.306 338.076 268.553 336.827C269.799 335.579 277.281 323.092 281.022 321.843C284.762 320.595 288.628 321.843 288.628 321.843" stroke="#222B41" stroke-width="4.05707" stroke-miterlimit="10"/>
<path d="M271.046 331.834C271.046 331.834 267.306 331.834 263.566 334.33C259.825 336.827 259.825 340.574 257.331 341.823C254.838 343.071 259.825 324.341 259.825 324.341C259.825 324.341 278.529 306.858 281.022 306.858C283.516 306.858 284.762 305.609 290.997 310.604C297.232 315.6 303.466 319.346 304.713 321.843C305.96 324.341 307.582 324.341 307.582 324.341" stroke="#222B41" stroke-width="4.05707" stroke-miterlimit="10"/>
<path d="M332.145 138.281C330.899 138.281 327.781 142.027 329.652 145.773C330.899 148.27 332.27 148.77 334.639 148.27C336.135 147.896 337.383 146.772 337.132 144.524C336.883 141.777 336.883 142.901 334.639 144.524C333.143 145.648 331.771 146.273 330.899 144.524C329.652 142.027 333.392 138.281 332.145 138.281Z" stroke="#222B41" stroke-width="3.31942" stroke-miterlimit="10"/>
<path d="M332.145 138.281C330.899 138.281 327.781 142.027 329.652 145.773C330.899 148.27 332.27 148.77 334.639 148.27C336.135 147.896 337.383 146.772 337.132 144.524C336.883 141.777 336.883 142.901 334.639 144.524C333.143 145.648 331.771 146.273 330.899 144.524C329.652 142.027 333.392 138.281 332.145 138.281Z" fill="#222B41" stroke="#222B41" stroke-width="3.31942" stroke-miterlimit="10"/>
<path d="M266.059 413.001H276.533C276.533 413.001 278.529 411.752 283.516 420.493C286.634 425.988 293.616 437.724 298.48 445.842C301.347 450.712 303.467 454.208 303.467 454.208C303.467 454.208 305.96 456.83 302.22 457.455C298.48 457.954 295.237 457.455 295.237 457.455C295.237 457.455 292.245 457.954 289.75 452.96C287.257 447.965 264.813 415.498 264.813 414.249C264.813 413.001 266.059 413.001 266.059 413.001Z" fill="#222B41"/>
<path d="M324.664 414.249L296.608 448.089L302.344 455.707L329.652 419.244L324.664 414.249Z" stroke="#222B41" stroke-width="2.9506" stroke-miterlimit="10"/>
<path d="M294.738 419.244C293.49 416.747 291.122 412.875 296.11 413C301.098 413.126 304.339 413 307.082 413C309.826 413 309.701 415.498 312.194 420.493C314.688 425.487 328.404 450.586 329.652 453.708C330.899 456.705 329.652 456.705 327.157 456.705C324.664 456.705 318.429 456.705 317.182 455.456C315.936 454.208 314.814 451.336 311.571 446.591C308.33 441.846 294.738 419.244 294.738 419.244Z" fill="#222B41"/>
<path d="M324.664 417.996C320.923 414.249 322.171 411.752 324.664 411.752C327.157 411.752 332.519 411.752 334.888 411.752C337.258 411.752 338.254 414.249 341.497 417.996C344.738 421.742 350.973 429.233 344.74 429.233C338.505 429.233 340.998 429.233 337.258 429.233C333.517 429.233 333.517 427.984 331.023 425.487C328.529 422.991 324.664 417.996 324.664 417.996Z" fill="#222B41"/>
<path d="M367.145 407.432C367.145 407.432 364.653 409.426 361.767 402.738C358.879 396.05 358.783 388.765 358.783 388.765C358.783 388.765 355.694 387.965 353.702 385.469C351.711 382.971 352.492 381.724 353.702 380.55C354.912 379.376 357.541 379.535 357.839 380.933C358.138 382.329 359.734 376.145 368.105 374.358C376.477 372.57 378.467 375.067 378.467 375.067C378.467 375.067 377.871 372.273 380.661 371.677C383.451 371.081 386.838 373.279 386.039 376.371C385.591 378.367 384.944 378.067 383.548 378.365C383.548 378.365 385.838 382.258 387.33 389.244C388.821 396.23 390.516 397.328 388.023 399.322C385.531 401.314 385.272 402.831 378.724 404.959C372.177 407.089 367.145 407.432 367.145 407.432Z" stroke="#222B41" stroke-width="2.02853" stroke-miterlimit="10"/>
<path d="M368.054 402.125C368.054 402.125 372.817 402.569 373.076 401.052C373.337 399.537 373.037 398.139 369.95 397.339C366.86 396.537 365.466 396.835 365.466 396.835" stroke="#222B41" stroke-width="2.02853" stroke-miterlimit="10"/>
<path d="M380.365 391.461C380.365 391.461 375.082 396.096 376.594 398.403C377.968 400.739 380.581 399.304 381.618 397.33" stroke="#222B41" stroke-width="2.02853" stroke-miterlimit="10"/>
<path d="M362.721 383.98C362.721 383.98 360.587 387.651 363.974 389.849C367.361 392.047 370.71 389.287 371.019 387.321C371.019 387.321 371.151 382.472 368.063 381.671C364.974 380.87 362.721 383.98 362.721 383.98Z" stroke="#222B41" stroke-width="2.02853" stroke-miterlimit="10"/>
<path d="M371.748 385.266C370.602 383.32 371.949 379.38 374.739 378.784C377.53 378.189 378.696 379.547 379.521 380.686C380.776 382.462 380.417 384.876 377.925 386.87C375.433 388.862 372.893 387.214 371.748 385.266Z" stroke="#222B41" stroke-width="2.02853" stroke-miterlimit="10"/>
<path d="M369.066 389.785C369.066 389.785 367.829 393.555 370.738 393.518C372.192 393.498 373.528 392.922 373.08 390.826C372.583 389.18 371.656 390.984 371.656 390.984C371.656 390.984 370.242 389.825 373.031 389.229C375.821 388.633 374.775 389.88 374.775 389.88C374.775 389.88 373.031 389.229 373.419 391.045C373.748 392.582 375.203 392.564 376.427 392.156C376.427 392.156 378.432 391.29 378.132 389.894C377.834 388.496 376.509 387.757 376.509 387.757" stroke="#222B41" stroke-width="2.02853" stroke-miterlimit="10"/>
<path d="M377.408 383.766C378.409 383.553 379.049 382.566 378.834 381.563C378.62 380.559 377.635 379.92 376.632 380.134C375.63 380.347 374.992 381.334 375.207 382.337C375.42 383.34 376.407 383.98 377.408 383.766Z" fill="#222B41"/>
<path d="M366.066 389.402C367.145 389.172 367.832 388.11 367.602 387.029C367.371 385.949 366.309 385.259 365.232 385.49C364.153 385.721 363.464 386.783 363.695 387.862C363.926 388.943 364.987 389.633 366.066 389.402Z" fill="#222B41"/>
<path d="M236.009 465.572C237.006 461.7 238.877 459.079 242.867 457.081C246.858 455.082 252.842 454.832 255.709 456.206C258.578 457.58 261.944 459.077 263.44 462.824C264.937 466.57 263.691 469.068 264.065 470.442C264.439 471.816 266.807 472.315 267.929 475.936C269.053 479.557 269.176 487.05 269.053 488.673C268.927 490.296 268.553 495.042 267.929 496.665C267.306 498.288 263.066 502.034 259.326 502.284C255.586 502.533 254.213 501.284 252.842 500.037C251.471 498.788 247.355 494.042 246.732 493.169" stroke="#222B41" stroke-width="2.02853" stroke-miterlimit="10"/>
<path d="M258.827 475.561C260.067 475.561 261.071 474.947 261.071 474.188C261.071 473.43 260.067 472.814 258.827 472.814C257.587 472.814 256.583 473.43 256.583 474.188C256.583 474.947 257.587 475.561 258.827 475.561Z" fill="#222B41"/>
<path d="M245.859 476.935C247.099 476.935 248.103 476.264 248.103 475.437C248.103 474.608 247.099 473.938 245.859 473.938C244.619 473.938 243.615 474.608 243.615 475.437C243.615 476.264 244.619 476.935 245.859 476.935Z" fill="#222B41"/>
<path d="M240.372 471.939C240.372 471.939 240.748 468.443 243.241 468.569C245.61 468.694 247.355 469.692 247.854 470.567C248.229 471.315 248.977 472.814 249.476 472.814" stroke="#222B41" stroke-width="2.02853" stroke-miterlimit="10"/>
<path d="M253.216 472.315C253.216 472.315 254.338 471.44 254.712 470.816C254.961 470.191 256.209 467.445 258.204 467.694C260.199 467.944 261.445 469.943 261.445 469.943" stroke="#222B41" stroke-width="2.02853" stroke-miterlimit="10"/>
<path d="M255.709 476.061C255.709 476.061 255.709 475.437 256.583 475.187C257.456 474.938 258.827 475.686 260.697 475.187C261.321 475.061 262.818 474.562 262.818 473.564C262.692 472.689 262.318 472.19 262.318 472.19" stroke="#222B41" stroke-width="2.21295" stroke-miterlimit="10"/>
<path d="M238.004 470.442C238.004 470.442 238.627 474.063 239.25 474.562C239.874 474.938 239.874 478.183 239.5 479.058C239.126 480.057 240.746 487.424 242.493 487.674" stroke="#222B41" stroke-width="2.02853" stroke-miterlimit="10"/>
<path d="M240.746 475.811C240.746 475.811 242.244 474.813 242.742 475.437C243.241 476.061 244.114 476.935 244.862 476.935C245.734 476.809 248.103 476.686 248.229 475.437" stroke="#222B41" stroke-width="2.21295" stroke-miterlimit="10"/>
<path d="M250.722 478.058C250.722 478.058 250.473 480.806 250.722 481.679C250.972 482.554 252.593 483.178 252.593 483.178C252.593 483.178 252.842 484.427 254.338 484.427C255.835 484.427 256.583 482.928 256.583 482.928C256.583 482.928 258.329 482.679 258.204 481.18C258.204 479.806 256.583 479.058 256.583 479.058" stroke="#222B41" stroke-width="2.02853" stroke-miterlimit="10"/>
<path d="M254.464 485.426C254.464 485.426 254.089 488.174 256.334 488.923C258.578 489.671 262.069 487.674 262.069 487.674C262.069 487.674 265.81 485.926 265.81 484.801C265.81 483.678 265.81 480.182 265.81 480.182C265.81 480.182 264.813 485.801 262.444 485.551C260.074 485.302 258.204 486.3 257.331 484.678C256.457 483.053 255.212 484.678 255.212 484.678L254.464 485.426Z" stroke="#222B41" stroke-width="2.02853" stroke-miterlimit="10"/>
<path d="M242.493 482.055C242.119 482.055 242.618 486.05 244.488 487.424C246.358 488.923 249.102 489.548 251.221 488.923C253.341 488.299 253.839 487.175 253.839 486.3C253.839 485.426 252.218 484.302 252.218 484.302C252.218 484.302 252.094 485.052 249.102 485.426C246.108 485.801 245.111 486.05 244.363 484.801C243.615 483.803 242.867 482.055 242.493 482.055Z" stroke="#222B41" stroke-width="2.02853" stroke-miterlimit="10"/>
<path d="M250.598 489.548C250.598 489.548 251.969 490.047 252.343 490.671C252.717 491.296 253.964 492.045 255.212 491.67C256.457 491.421 258.578 491.421 259.451 490.047C260.448 488.798 260.323 488.423 260.323 488.423" stroke="#222B41" stroke-width="2.02853" stroke-miterlimit="10"/>
<path d="M373.791 473.188L372.171 471.939L360.824 467.195L349.602 459.578C349.602 459.578 349.228 457.455 350.724 457.705C352.344 457.954 364.939 459.203 364.939 459.203C364.939 459.203 368.306 456.081 369.926 454.208C371.547 452.334 373.294 450.212 373.294 450.212" stroke="#222B41" stroke-width="2.02853" stroke-miterlimit="10"/>
<path d="M373.294 467.57L374.541 474.938L378.53 477.434C378.53 477.434 380.277 478.434 381.896 478.183C383.643 477.935 384.889 476.31 384.889 476.31C384.889 476.31 384.515 473.689 382.396 473.689C380.277 473.689 380.774 473.689 380.774 473.689L381.773 466.821L386.012 462.575L386.51 449.463L387.632 444.219L393.119 442.346C393.119 442.346 396.237 440.846 396.111 437.225C395.986 433.604 395.737 431.357 393.119 431.106C390.501 430.858 383.892 431.106 383.892 431.106C383.892 431.106 379.527 431.106 379.153 436.352C378.779 441.596 378.779 444.094 378.405 445.217C378.031 446.341 376.411 447.965 376.411 447.965" stroke="#222B41" stroke-width="2.02853" stroke-miterlimit="10"/>
<path d="M380.774 449.588L372.42 446.092L367.433 442.471L364.939 444.219L365.562 445.716H367.184L372.046 448.214C372.046 448.214 374.664 452.334 375.912 453.583C377.159 454.708 376.785 456.081 376.785 456.081" stroke="#222B41" stroke-width="2.02853" stroke-miterlimit="10"/>
<path d="M385.263 464.323L388.131 465.321C388.131 465.321 390.002 463.074 391.249 463.448C392.496 463.824 393.244 464.822 392.496 466.445C391.747 468.069 390.002 470.442 390.002 470.442C390.002 470.442 387.509 469.692 386.136 469.817C384.765 469.943 381.522 469.943 381.522 469.943" stroke="#222B41" stroke-width="2.02853" stroke-miterlimit="10"/>
<path d="M386.385 457.58L390.127 455.957L392.121 457.58L392.869 455.957L394.741 456.83C394.741 456.83 394.989 454.708 394.864 454.583C394.741 454.333 392.121 454.333 392.121 454.333L386.635 452.336" stroke="#222B41" stroke-width="2.02853" stroke-miterlimit="10"/>
<path d="M384.017 431.232C384.017 431.232 382.145 433.479 382.895 438.724C383.643 443.968 387.009 447.965 387.009 447.965" stroke="#222B41" stroke-width="2.02853" stroke-miterlimit="10"/>
<path d="M383.144 436.976C383.144 436.976 386.759 438.1 388.505 436.102C390.251 434.103 388.505 431.232 388.505 431.232" stroke="#222B41" stroke-width="2.02853" stroke-miterlimit="10"/>
<path d="M395.863 439.598L393.992 440.721L391.498 439.598L389.628 441.097L387.757 440.347L386.51 441.846C386.51 441.846 385.637 441.222 385.263 440.097" stroke="#222B41" stroke-width="2.02853" stroke-miterlimit="10"/>
<path d="M387.757 435.851C388.653 435.851 389.379 435.125 389.379 434.228C389.379 433.331 388.653 432.606 387.757 432.606C386.862 432.606 386.136 433.331 386.136 434.228C386.136 435.125 386.862 435.851 387.757 435.851Z" fill="#222B41"/>
<path d="M212.441 385.778L208.577 386.527L213.939 397.766H217.18" stroke="#222B41" stroke-width="2.02853" stroke-miterlimit="10"/>
<path d="M223.664 379.535L219.675 400.638" stroke="#222B41" stroke-width="2.02853" stroke-miterlimit="10"/>
<path d="M227.03 383.904L230.772 383.156L234.013 395.394L229.525 396.392" stroke="#222B41" stroke-width="2.02853" stroke-miterlimit="10"/>
<path d="M204.587 384.03C204.587 384.03 207.704 375.789 218.179 375.413C228.652 375.039 239.001 379.41 238.004 390.148C237.006 400.888 231.146 405.259 222.417 406.383C213.689 407.506 210.945 403.261 210.945 403.261" stroke="#222B41" stroke-width="2.02853" stroke-miterlimit="10"/>
<path d="M232.268 402.636C232.268 402.636 239.001 407.007 242.119 401.387C245.236 395.768 238.004 392.396 238.004 392.396" stroke="#222B41" stroke-width="2.02853" stroke-miterlimit="10"/>
<path d="M248.457 406.444C249.035 404.819 248.397 403.11 247.035 402.624C245.673 402.138 244.101 403.061 243.522 404.685C242.946 406.31 243.582 408.02 244.944 408.506C246.306 408.992 247.88 408.068 248.457 406.444Z" stroke="#222B41" stroke-width="2.02853" stroke-miterlimit="10"/>
<path d="M874.3 676.481C874.3 676.481 876.296 659.998 878.415 652.631C880.659 645.263 886.52 638.52 887.143 634.274C887.891 630.154 892.007 617.916 898.117 620.538C904.226 623.286 900.61 635.149 900.61 635.149" stroke="#222B41" stroke-width="2.21295" stroke-miterlimit="10"/>
<path d="M882.155 677.106C882.155 677.106 887.767 655.003 891.382 648.385C894.999 641.642 899.488 637.77 904.6 630.902C909.712 624.035 917.069 608.176 919.438 606.928C921.931 605.679 924.301 617.916 918.814 628.156C913.329 638.395 910.46 638.395 910.46 638.395C910.46 638.395 914.326 644.514 909.712 647.886C905.098 651.257 900.735 654.005 899.239 656.876C897.743 659.748 904.101 650.883 908.216 655.878C912.33 660.871 907.468 665.242 901.732 669.364C895.996 673.485 895.497 675.982 895.497 678.104" stroke="#222B41" stroke-width="2.21295" stroke-miterlimit="10"/>
<path d="M888.016 677.106C888.016 677.106 891.382 659.998 894.999 651.881C898.614 643.764 899.613 644.639 906.22 636.897C912.829 629.154 913.078 626.282 913.078 626.282" stroke="#222B41" stroke-width="2.21295" stroke-miterlimit="10"/>
<path d="M879.412 673.984C879.412 673.984 881.781 657.001 888.016 645.263C894.251 633.525 892.007 637.521 892.007 637.521" stroke="#222B41" stroke-width="2.21295" stroke-miterlimit="10"/>
<path d="M198.727 708.698C198.727 708.698 197.605 697.584 185.26 694.838C172.915 692.09 126.905 685.597 108.824 687.096C90.7443 688.594 44.3594 693.589 40.1199 701.33C35.8804 709.073 43.9853 708.698 51.2174 708.698C58.4494 708.698 53.9605 717.565 76.1555 713.319C98.3504 709.073 91.8666 712.569 91.8666 712.569C91.8666 712.569 88.0011 721.435 109.573 717.565C131.144 713.693 136.88 712.943 136.88 712.943C136.88 712.943 131.518 720.687 151.469 720.062C171.419 719.438 171.793 716.441 179.898 716.065C188.004 715.691 198.353 717.565 199.475 719.937" stroke="#222B41" stroke-width="2.58177" stroke-miterlimit="10"/>
<path d="M188.378 710.696C188.378 710.696 174.162 701.455 150.721 701.829C127.279 702.205 126.157 707.2 121.543 701.829" stroke="#222B41" stroke-width="2.58177" stroke-miterlimit="10"/>
<path d="M198.609 680.184C198.609 680.184 191.494 668.74 169.673 664.119C147.853 659.499 141.618 656.377 118.55 656.377C95.4824 656.377 81.2677 658.25 81.2677 662.87C81.2677 662.87 67.9258 664.369 66.9282 667.74C65.9308 671.112 73.911 672.985 83.7615 672.61C93.7368 672.236 95.2331 672.485 95.2331 672.485C95.2331 672.485 92.1157 675.982 96.854 678.603C101.468 681.226 112.066 674.858 116.056 675.107C120.047 675.358 113.064 677.605 113.937 680.102C114.81 682.725 117.802 685.098 128.401 681.85C139 678.48 150.97 685.223 154.087 689.968" stroke="#222B41" stroke-width="2.58177" stroke-miterlimit="10"/>
<path d="M194.736 689.468C194.736 689.468 190.746 691.59 184.262 687.595C177.778 683.598 172.292 676.356 165.309 676.107C158.451 675.857 153.588 676.231 149.848 673.109" stroke="#222B41" stroke-width="2.58177" stroke-miterlimit="10"/>
<path d="M208.078 714.817C208.078 714.817 201.843 704.203 200.721 692.839C199.599 681.476 194.736 663.87 192.492 655.377C190.248 646.886 183.639 626.157 192.866 617.791C202.093 609.425 205.209 608.3 205.209 608.3C205.209 608.3 201.095 596.937 207.704 587.822C214.313 578.706 217.305 577.706 217.18 575.459C217.055 573.212 218.302 565.719 219.424 565.22C220.547 564.721 231.395 571.963 234.513 586.199C237.63 600.433 232.268 607.302 232.268 607.302C232.268 607.302 234.887 635.772 230.273 640.767C225.534 645.762 225.534 646.886 225.534 646.886C225.534 646.886 229.026 657.25 226.282 675.982C223.664 694.587 218.428 715.566 218.428 715.566" stroke="#222B41" stroke-width="2.58177" stroke-miterlimit="10"/>
<path d="M220.547 706.825C220.547 706.825 235.51 697.834 241.994 689.343C248.477 680.852 253.59 670.362 266.184 664.244C278.778 658.125 282.269 658.499 282.269 658.499M227.156 673.234C227.156 673.234 246.732 657.875 253.964 653.255C261.196 648.634 267.805 649.509 267.805 649.509C267.805 649.509 282.768 642.64 285.136 641.642C287.506 640.643 308.828 640.767 310.574 642.266C312.319 643.764 310.574 644.764 307.331 647.635C304.09 650.507 295.362 658.499 295.237 663.369C295.112 668.239 296.608 669.114 288.254 675.732C279.9 682.35 278.155 683.473 278.155 683.473C278.155 683.473 280.025 690.966 273.541 695.337C267.057 699.708 256.583 699.333 256.583 699.333C256.583 699.333 253.715 704.078 239.25 709.698C224.786 715.316 222.999 715.107 222.999 715.107L227.156 673.234Z" stroke="#222B41" stroke-width="2.58177" stroke-miterlimit="10"/>
<path d="M211.695 713.444C211.695 713.444 208.078 677.106 207.953 658.624C207.829 640.143 213.814 631.526 212.443 626.282" stroke="#222B41" stroke-width="2.58177" stroke-miterlimit="10"/>
<path d="M768.937 675.233H772.552C772.552 675.233 773.3 674.858 775.047 677.855C776.169 679.728 778.537 683.849 780.284 686.72C781.281 688.468 782.029 689.594 782.029 689.594C782.029 689.594 782.902 690.467 781.531 690.717C780.284 690.966 779.161 690.717 779.161 690.717C779.161 690.717 778.163 690.966 777.291 689.218C776.418 687.47 768.563 676.231 768.563 675.732C768.563 675.233 768.937 675.233 768.937 675.233Z" fill="#222B41"/>
<path d="M789.386 676.98L778.787 686.472L780.658 688.969L791.63 678.728L789.386 676.98Z" stroke="#222B41" stroke-width="2.9506" stroke-miterlimit="10"/>
<path d="M778.913 677.48C778.539 676.606 777.665 675.232 779.41 675.232C781.157 675.232 782.279 675.232 783.276 675.232C784.149 675.232 784.149 676.107 785.022 677.855C785.894 679.603 790.633 688.345 791.132 689.468C791.506 690.467 791.132 690.467 790.259 690.467C789.386 690.467 787.267 690.467 786.767 690.093C786.393 689.717 785.894 688.719 784.772 686.971C783.775 685.346 778.913 677.48 778.913 677.48Z" fill="#222B41"/>
<path d="M789.386 676.98C788.138 675.732 788.512 674.858 789.386 674.858C790.259 674.858 792.129 674.858 792.877 674.858C793.625 674.858 793.999 675.732 795.121 676.98C796.244 678.229 798.364 680.852 796.244 680.852C794.125 680.852 794.996 680.852 793.625 680.852C792.378 680.852 792.378 680.476 791.506 679.603C790.633 678.728 789.386 676.98 789.386 676.98Z" fill="#222B41"/>
<path d="M398.855 645.762C398.855 645.762 412.197 664.119 415.438 668.115C418.806 672.111 430.9 682.85 430.9 682.85" stroke="#222B41" stroke-width="2.21295" stroke-miterlimit="10"/>
<path d="M301.97 525.011C301.97 525.011 316.185 539.122 322.294 547.363C328.404 555.605 342.12 573.711 342.12 573.711" stroke="#222B41" stroke-width="2.21295" stroke-miterlimit="10"/>
</g>
<defs>
<filter id="filter0_f_509_521" x="-481.977" y="-535.737" width="1725.55" height="1588.75" filterUnits="userSpaceOnUse" color-interpolation-filters="sRGB">
<feFlood flood-opacity="0" result="BackgroundImageFix"/>
<feBlend mode="normal" in="SourceGraphic" in2="BackgroundImageFix" result="shape"/>
<feGaussianBlur stdDeviation="259.418" result="effect1_foregroundBlur_509_521"/>
</filter>
<filter id="filter1_f_509_521" x="60.0561" y="-215.609" width="1535.39" height="1413.49" filterUnits="userSpaceOnUse" color-interpolation-filters="sRGB">
<feFlood flood-opacity="0" result="BackgroundImageFix"/>
<feBlend mode="normal" in="SourceGraphic" in2="BackgroundImageFix" result="shape"/>
<feGaussianBlur stdDeviation="249.514" result="effect1_foregroundBlur_509_521"/>
</filter>
<filter id="filter2_f_509_521" x="-312.901" y="-647.667" width="1899.9" height="1710.85" filterUnits="userSpaceOnUse" color-interpolation-filters="sRGB">
<feFlood flood-opacity="0" result="BackgroundImageFix"/>
<feBlend mode="normal" in="SourceGraphic" in2="BackgroundImageFix" result="shape"/>
<feGaussianBlur stdDeviation="284.877" result="effect1_foregroundBlur_509_521"/>
</filter>
<filter id="filter3_f_509_521" x="202.085" y="-355.342" width="1842.52" height="1707.29" filterUnits="userSpaceOnUse" color-interpolation-filters="sRGB">
<feFlood flood-opacity="0" result="BackgroundImageFix"/>
<feBlend mode="normal" in="SourceGraphic" in2="BackgroundImageFix" result="shape"/>
<feGaussianBlur stdDeviation="324.068" result="effect1_foregroundBlur_509_521"/>
</filter>
<filter id="filter4_f_509_521" x="480.55" y="-332.345" width="2041.89" height="1857.14" filterUnits="userSpaceOnUse" color-interpolation-filters="sRGB">
<feFlood flood-opacity="0" result="BackgroundImageFix"/>
<feBlend mode="normal" in="SourceGraphic" in2="BackgroundImageFix" result="shape"/>
<feGaussianBlur stdDeviation="306.882" result="effect1_foregroundBlur_509_521"/>
</filter>
<radialGradient id="paint0_radial_509_521" cx="0" cy="0" r="1" gradientUnits="userSpaceOnUse" gradientTransform="translate(502.247 233.391) rotate(73.6035) scale(947.583 1222.48)">
<stop stop-color="#FFEA2E"/>
<stop offset="1" stop-color="#E8F925" stop-opacity="0"/>
</radialGradient>
<radialGradient id="paint1_radial_509_521" cx="0" cy="0" r="1" gradientUnits="userSpaceOnUse" gradientTransform="translate(257.995 207.454) rotate(90) scale(207.454 257.995)">
<stop stop-color="#EFFF38"/>
<stop offset="1" stop-color="#CBE04A" stop-opacity="0.65"/>
</radialGradient>
<radialGradient id="paint2_radial_509_521" cx="0" cy="0" r="1" gradientUnits="userSpaceOnUse" gradientTransform="translate(637.052 207.757) rotate(49.4799) scale(302.017 1080.23)">
<stop stop-color="#8B78FF"/>
<stop offset="1" stop-color="#6349FF" stop-opacity="0.37"/>
</radialGradient>
<radialGradient id="paint3_angular_509_521" cx="0" cy="0" r="1" gradientUnits="userSpaceOnUse" gradientTransform="translate(1123.35 498.302) rotate(136.598) scale(230.598 236.974)">
<stop stop-color="#FFE072"/>
<stop offset="1" stop-color="#FFD84B" stop-opacity="0"/>
</radialGradient>
<clipPath id="clip0_509_521">
<rect width="1366" height="768" fill="white"/>
</clipPath>
<clipPath id="clip1_509_521">
<rect width="885.179" height="675.061" fill="white" transform="translate(38 46)"/>
</clipPath>
</defs>
</svg>
